<svg id="visual" viewBox="0 0 1920 1080" width="1920" height="1080" xmlns="http://www.w3.org/2000/svg" xmlns:xlink="http://www.w3.org/1999/xlink" version="1.1"><rect x="0" y="0" width="1920" height="1080" fill="#CCCCCC"></rect><path d="M0 732L45.7 733.3C91.3 734.7 182.7 737.3 274.2 727C365.7 716.7 457.3 693.3 548.8 703.3C640.3 713.3 731.7 756.7 823 771.7C914.3 786.7 1005.7 773.3 1097 750C1188.3 726.7 1279.7 693.3 1371.2 692.8C1462.7 692.3 1554.3 724.7 1645.8 720.8C1737.3 717 1828.7 677 1874.3 657L1920 637L1920 1081L1874.3 1081C1828.7 1081 1737.3 1081 1645.8 1081C1554.3 1081 1462.7 1081 1371.2 1081C1279.7 1081 1188.3 1081 1097 1081C1005.7 1081 914.3 1081 823 1081C731.7 1081 640.3 1081 548.8 1081C457.3 1081 365.7 1081 274.2 1081C182.7 1081 91.3 1081 45.7 1081L0 1081Z" fill="#cccccc"></path><path d="M0 786L45.7 792.7C91.3 799.3 182.7 812.7 274.2 800.7C365.7 788.7 457.3 751.3 548.8 747.2C640.3 743 731.7 772 823 790.3C914.3 808.7 1005.7 816.3 1097 801C1188.3 785.7 1279.7 747.3 1371.2 741.2C1462.7 735 1554.3 761 1645.8 775.7C1737.3 790.3 1828.7 793.7 1874.3 795.3L1920 797L1920 1081L1874.3 1081C1828.7 1081 1737.3 1081 1645.8 1081C1554.3 1081 1462.7 1081 1371.2 1081C1279.7 1081 1188.3 1081 1097 1081C1005.7 1081 914.3 1081 823 1081C731.7 1081 640.3 1081 548.8 1081C457.3 1081 365.7 1081 274.2 1081C182.7 1081 91.3 1081 45.7 1081L0 1081Z" fill="#95989d"></path><path d="M0 829L45.7 834C91.3 839 182.7 849 274.2 849.7C365.7 850.3 457.3 841.7 548.8 833.3C640.3 825 731.7 817 823 827.5C914.3 838 1005.7 867 1097 878C1188.3 889 1279.7 882 1371.2 870.3C1462.7 858.7 1554.3 842.3 1645.8 844.8C1737.3 847.3 1828.7 868.7 1874.3 879.3L1920 890L1920 1081L1874.3 1081C1828.7 1081 1737.3 1081 1645.8 1081C1554.3 1081 1462.7 1081 1371.2 1081C1279.7 1081 1188.3 1081 1097 1081C1005.7 1081 914.3 1081 823 1081C731.7 1081 640.3 1081 548.8 1081C457.3 1081 365.7 1081 274.2 1081C182.7 1081 91.3 1081 45.7 1081L0 1081Z" fill="#616771"></path><path d="M0 947L45.7 944.8C91.3 942.7 182.7 938.3 274.2 939.8C365.7 941.3 457.3 948.7 548.8 941.5C640.3 934.3 731.7 912.7 823 915.2C914.3 917.7 1005.7 944.3 1097 957.5C1188.3 970.7 1279.7 970.3 1371.2 955.7C1462.7 941 1554.3 912 1645.8 911.3C1737.3 910.7 1828.7 938.3 1874.3 952.2L1920 966L1920 1081L1874.3 1081C1828.7 1081 1737.3 1081 1645.8 1081C1554.3 1081 1462.7 1081 1371.2 1081C1279.7 1081 1188.3 1081 1097 1081C1005.7 1081 914.3 1081 823 1081C731.7 1081 640.3 1081 548.8 1081C457.3 1081 365.7 1081 274.2 1081C182.7 1081 91.3 1081 45.7 1081L0 1081Z" fill="#303a48"></path><path d="M0 992L45.7 989C91.3 986 182.7 980 274.2 985.3C365.7 990.7 457.3 1007.3 548.8 1010.5C640.3 1013.7 731.7 1003.3 823 999.5C914.3 995.7 1005.7 998.3 1097 1001.3C1188.3 1004.3 1279.7 1007.7 1371.2 1008C1462.7 1008.3 1554.3 1005.7 1645.8 1000.5C1737.3 995.3 1828.7 987.7 1874.3 983.8L1920 980L1920 1081L1874.3 1081C1828.7 1081 1737.3 1081 1645.8 1081C1554.3 1081 1462.7 1081 1371.2 1081C1279.7 1081 1188.3 1081 1097 1081C1005.7 1081 914.3 1081 823 1081C731.7 1081 640.3 1081 548.8 1081C457.3 1081 365.7 1081 274.2 1081C182.7 1081 91.3 1081 45.7 1081L0 1081Z" fill="#001122"></path></svg>